# xmcd
# 
# Track frame offsets:
#     182
#     17957
#     32387
#     48582
#     66207
#     80870
#     97032
#     112307
#     130070
#     148157
#     166470
#     180857
#     196020
#     211865
#     227382
#     242920
#     257932
#     273107
#     287620
#     304127
#     333907
# 
# Disc length: 4795
# 
# Revision: 3
# Processed by: cddbd v1.5.2PL0 Copyright (c) Steve Scherf et al.
# Submitted via: fre:ac v1.0.31
# 
DISCID=2e12b915
DTITLE=Various Artist - Bääärenstark!!! Frühjahr 2003 - CD1
DYEAR=2003
DGENRE=Schlager
TTITLE0=Andrea Berg - Auch heute noch
TTITLE1=Die Flippers - Drei Töne am Piano
TTITLE2=Tom Astor - Wenn du zwei Arme brauchst - die dich umarmen
TTITLE3=Kristina Bach - Fliegst du mit mir zu den Sternen
TTITLE4=Patrick Lindner - Wann seh'n wir uns wieder
TTITLE5=Claudia Jung - Wenn es morgen nicht mehr gibt
TTITLE6=Hansi Hinterseer - Ich lieb dich über alles auf der Welt
TTITLE7=Chris Roberts - Wenn du fühlst was ich fühl
TTITLE8=Nicole - Vergiss mich, wenn du kannst
TTITLE9=Trenkwalder - Cafe Toscana
TTITLE10=Gaby Baginsky - Mit 50 ist das Leben eben lang noch nicht vorbei
TTITLE11=Christian Steffen - So weit die Liebe uns trägt
TTITLE12=Jeannine - In einer Nacht wie dieser
TTITLE13=Oliver Frank - 1000 Mal vermisst
TTITLE14=Wind - Wenn die Liebe triumphiert
TTITLE15=Nina Lizell - Bel Ami
TTITLE16=Willi Seitz - Einmal ein Freund - immer ein Freund
TTITLE17=Monika Martin and KKarel Gott - Lass die Träume nie verloren geh'n
TTITLE18=Roger Whittaker - Sag mir wo du bist
TTITLE19=Brunner and Brunner - Licht in der Nacht
TTITLE20=Data - Data
EXTD=
EXTT0=
EXTT1=
EXTT2=
EXTT3=
EXTT4=
EXTT5=
EXTT6=
EXTT7=
EXTT8=
EXTT9=
EXTT10=
EXTT11=
EXTT12=
EXTT13=
EXTT14=
EXTT15=
EXTT16=
EXTT17=
EXTT18=
EXTT19=
EXTT20=
PLAYORDER=
